<svg width="231" height="39" viewBox="0 0 231 39" fill="none" xmlns="http://www.w3.org/2000/svg">
<path d="M36.0455 31V28.9545L48.5909 10.2273H35.9091V7.72727H51.9545V9.77273L39.4091 28.5H52.0909V31H36.0455ZM63.5455 31.3636C61.9697 31.3636 60.5871 30.9886 59.3977 30.2386C58.2159 29.4886 57.2917 28.4394 56.625 27.0909C55.9659 25.7424 55.6364 24.1667 55.6364 22.3636C55.6364 20.5455 55.9659 18.9583 56.625 17.6023C57.2917 16.2462 58.2159 15.1932 59.3977 14.4432C60.5871 13.6932 61.9697 13.3182 63.5455 13.3182C65.1212 13.3182 66.5 13.6932 67.6818 14.4432C68.8712 15.1932 69.7955 16.2462 70.4545 17.6023C71.1212 18.9583 71.4545 20.5455 71.4545 22.3636C71.4545 24.1667 71.1212 25.7424 70.4545 27.0909C69.7955 28.4394 68.8712 29.4886 67.6818 30.2386C66.5 30.9886 65.1212 31.3636 63.5455 31.3636ZM63.5455 28.9545C64.7424 28.9545 65.7273 28.6477 66.5 28.0341C67.2727 27.4205 67.8447 26.6136 68.2159 25.6136C68.5871 24.6136 68.7727 23.5303 68.7727 22.3636C68.7727 21.197 68.5871 20.1098 68.2159 19.1023C67.8447 18.0947 67.2727 17.2803 66.5 16.6591C65.7273 16.0379 64.7424 15.7273 63.5455 15.7273C62.3485 15.7273 61.3636 16.0379 60.5909 16.6591C59.8182 17.2803 59.2462 18.0947 58.875 19.1023C58.5038 20.1098 58.3182 21.197 58.3182 22.3636C58.3182 23.5303 58.5038 24.6136 58.875 25.6136C59.2462 26.6136 59.8182 27.4205 60.5909 28.0341C61.3636 28.6477 62.3485 28.9545 63.5455 28.9545ZM89.196 13.5455L82.7415 31H80.0142L73.5597 13.5455H76.4688L81.2869 27.4545H81.4688L86.2869 13.5455H89.196ZM102.099 31V7.72727H109.963C111.789 7.72727 113.281 8.05682 114.44 8.71591C115.607 9.36742 116.471 10.25 117.031 11.3636C117.592 12.4773 117.872 13.7197 117.872 15.0909C117.872 16.4621 117.592 17.7083 117.031 18.8295C116.478 19.9508 115.622 20.8447 114.463 21.5114C113.304 22.1705 111.819 22.5 110.009 22.5H104.372V20H109.918C111.168 20 112.171 19.7841 112.929 19.3523C113.687 18.9205 114.236 18.3371 114.577 17.6023C114.925 16.8598 115.099 16.0227 115.099 15.0909C115.099 14.1591 114.925 13.3258 114.577 12.5909C114.236 11.8561 113.683 11.2803 112.918 10.8636C112.152 10.4394 111.137 10.2273 109.872 10.2273H104.918V31H102.099ZM129.179 31.3636C127.497 31.3636 126.046 30.9924 124.827 30.25C123.615 29.5 122.679 28.4545 122.02 27.1136C121.368 25.7652 121.043 24.197 121.043 22.4091C121.043 20.6212 121.368 19.0455 122.02 17.6818C122.679 16.3106 123.596 15.2424 124.77 14.4773C125.952 13.7045 127.33 13.3182 128.906 13.3182C129.815 13.3182 130.713 13.4697 131.599 13.7727C132.486 14.0758 133.293 14.5682 134.02 15.25C134.747 15.9242 135.327 16.8182 135.759 17.9318C136.19 19.0455 136.406 20.4167 136.406 22.0455V23.1818H122.952V20.8636H133.679C133.679 19.8788 133.482 19 133.088 18.2273C132.702 17.4545 132.149 16.8447 131.429 16.3977C130.717 15.9508 129.876 15.7273 128.906 15.7273C127.838 15.7273 126.914 15.9924 126.134 16.5227C125.361 17.0455 124.766 17.7273 124.349 18.5682C123.933 19.4091 123.724 20.3106 123.724 21.2727V22.8182C123.724 24.1364 123.952 25.2538 124.406 26.1705C124.868 27.0795 125.509 27.7727 126.327 28.25C127.145 28.7197 128.096 28.9545 129.179 28.9545C129.884 28.9545 130.52 28.8561 131.088 28.6591C131.664 28.4545 132.16 28.1515 132.577 27.75C132.993 27.3409 133.315 26.8333 133.543 26.2273L136.134 26.9545C135.861 27.8333 135.402 28.6061 134.759 29.2727C134.115 29.9318 133.319 30.447 132.372 30.8182C131.425 31.1818 130.361 31.3636 129.179 31.3636ZM140.486 31V13.5455H143.077V16.1818H143.259C143.577 15.3182 144.152 14.6174 144.986 14.0795C145.819 13.5417 146.759 13.2727 147.804 13.2727C148.001 13.2727 148.247 13.2765 148.543 13.2841C148.838 13.2917 149.062 13.303 149.213 13.3182V16.0455C149.122 16.0227 148.914 15.9886 148.588 15.9432C148.27 15.8902 147.933 15.8636 147.577 15.8636C146.728 15.8636 145.971 16.0417 145.304 16.3977C144.645 16.7462 144.122 17.2311 143.736 17.8523C143.357 18.4659 143.168 19.1667 143.168 19.9545V31H140.486ZM164.756 17.4545L162.347 18.1364C162.195 17.7348 161.972 17.3447 161.676 16.9659C161.388 16.5795 160.994 16.2614 160.494 16.0114C159.994 15.7614 159.354 15.6364 158.574 15.6364C157.506 15.6364 156.616 15.8826 155.903 16.375C155.199 16.8598 154.847 17.4773 154.847 18.2273C154.847 18.8939 155.089 19.4205 155.574 19.8068C156.059 20.1932 156.816 20.5152 157.847 20.7727L160.438 21.4091C161.998 21.7879 163.161 22.3674 163.926 23.1477C164.691 23.9205 165.074 24.9167 165.074 26.1364C165.074 27.1364 164.786 28.0303 164.21 28.8182C163.642 29.6061 162.847 30.2273 161.824 30.6818C160.801 31.1364 159.612 31.3636 158.256 31.3636C156.475 31.3636 155.002 30.9773 153.835 30.2045C152.669 29.4318 151.93 28.303 151.619 26.8182L154.165 26.1818C154.407 27.1212 154.866 27.8258 155.54 28.2955C156.222 28.7652 157.112 29 158.21 29C159.46 29 160.453 28.7348 161.188 28.2045C161.93 27.6667 162.301 27.0227 162.301 26.2727C162.301 25.6667 162.089 25.1591 161.665 24.75C161.241 24.3333 160.589 24.0227 159.71 23.8182L156.801 23.1364C155.203 22.7576 154.028 22.1705 153.278 21.375C152.536 20.572 152.165 19.5682 152.165 18.3636C152.165 17.3788 152.441 16.5076 152.994 15.75C153.555 14.9924 154.316 14.3977 155.278 13.9659C156.248 13.5341 157.347 13.3182 158.574 13.3182C160.301 13.3182 161.657 13.697 162.642 14.4545C163.634 15.2121 164.339 16.2121 164.756 17.4545ZM176.202 31.3636C174.626 31.3636 173.243 30.9886 172.054 30.2386C170.872 29.4886 169.948 28.4394 169.281 27.0909C168.622 25.7424 168.293 24.1667 168.293 22.3636C168.293 20.5455 168.622 18.9583 169.281 17.6023C169.948 16.2462 170.872 15.1932 172.054 14.4432C173.243 13.6932 174.626 13.3182 176.202 13.3182C177.777 13.3182 179.156 13.6932 180.338 14.4432C181.527 15.1932 182.452 16.2462 183.111 17.6023C183.777 18.9583 184.111 20.5455 184.111 22.3636C184.111 24.1667 183.777 25.7424 183.111 27.0909C182.452 28.4394 181.527 29.4886 180.338 30.2386C179.156 30.9886 177.777 31.3636 176.202 31.3636ZM176.202 28.9545C177.399 28.9545 178.384 28.6477 179.156 28.0341C179.929 27.4205 180.501 26.6136 180.872 25.6136C181.243 24.6136 181.429 23.5303 181.429 22.3636C181.429 21.197 181.243 20.1098 180.872 19.1023C180.501 18.0947 179.929 17.2803 179.156 16.6591C178.384 16.0379 177.399 15.7273 176.202 15.7273C175.005 15.7273 174.02 16.0379 173.247 16.6591C172.474 17.2803 171.902 18.0947 171.531 19.1023C171.16 20.1098 170.974 21.197 170.974 22.3636C170.974 23.5303 171.16 24.6136 171.531 25.6136C171.902 26.6136 172.474 27.4205 173.247 28.0341C174.02 28.6477 175.005 28.9545 176.202 28.9545ZM190.886 20.5V31H188.205V13.5455H190.795V16.2727H191.023C191.432 15.3864 192.053 14.6742 192.886 14.1364C193.72 13.5909 194.795 13.3182 196.114 13.3182C197.295 13.3182 198.33 13.5606 199.216 14.0455C200.102 14.5227 200.792 15.25 201.284 16.2273C201.777 17.197 202.023 18.4242 202.023 19.9091V31H199.341V20.0909C199.341 18.7197 198.985 17.6515 198.273 16.8864C197.561 16.1136 196.583 15.7273 195.341 15.7273C194.485 15.7273 193.72 15.9129 193.045 16.2841C192.379 16.6553 191.852 17.197 191.466 17.9091C191.08 18.6212 190.886 19.4848 190.886 20.5ZM212.06 31.4091C210.954 31.4091 209.95 31.2008 209.048 30.7841C208.147 30.3598 207.431 29.75 206.901 28.9545C206.37 28.1515 206.105 27.1818 206.105 26.0455C206.105 25.0455 206.302 24.2348 206.696 23.6136C207.09 22.9848 207.616 22.4924 208.276 22.1364C208.935 21.7803 209.662 21.5152 210.457 21.3409C211.26 21.1591 212.067 21.0152 212.878 20.9091C213.938 20.7727 214.798 20.6705 215.457 20.6023C216.124 20.5265 216.609 20.4015 216.912 20.2273C217.223 20.053 217.378 19.75 217.378 19.3182V19.2273C217.378 18.1061 217.071 17.2348 216.457 16.6136C215.851 15.9924 214.931 15.6818 213.696 15.6818C212.416 15.6818 211.412 15.9621 210.685 16.5227C209.957 17.0833 209.446 17.6818 209.151 18.3182L206.605 17.4091C207.06 16.3485 207.666 15.5227 208.423 14.9318C209.188 14.3333 210.022 13.9167 210.923 13.6818C211.832 13.4394 212.726 13.3182 213.605 13.3182C214.166 13.3182 214.81 13.3864 215.537 13.5227C216.272 13.6515 216.98 13.9205 217.662 14.3295C218.351 14.7386 218.923 15.3561 219.378 16.1818C219.832 17.0076 220.06 18.1136 220.06 19.5V31H217.378V28.6364H217.241C217.06 29.0152 216.757 29.4205 216.332 29.8523C215.908 30.2841 215.344 30.6515 214.639 30.9545C213.935 31.2576 213.075 31.4091 212.06 31.4091ZM212.469 29C213.529 29 214.423 28.7917 215.151 28.375C215.885 27.9583 216.438 27.4205 216.81 26.7614C217.188 26.1023 217.378 25.4091 217.378 24.6818V22.2273C217.264 22.3636 217.014 22.4886 216.628 22.6023C216.249 22.7083 215.81 22.803 215.31 22.8864C214.817 22.9621 214.336 23.0303 213.866 23.0909C213.404 23.1439 213.029 23.1894 212.741 23.2273C212.045 23.3182 211.393 23.4659 210.787 23.6705C210.188 23.8674 209.704 24.1667 209.332 24.5682C208.969 24.9621 208.787 25.5 208.787 26.1818C208.787 27.1136 209.132 27.8182 209.821 28.2955C210.518 28.7652 211.401 29 212.469 29ZM227.636 7.72727V31H224.955V7.72727H227.636Z" fill="#1C2706"/>
<path d="M12.25 27.7693L14.75 30.3076C14.9962 30.5577 15.2885 30.756 15.6103 30.8913C15.932 31.0266 16.2768 31.0962 16.625 31.0962C16.9732 31.0962 17.318 31.0266 17.6397 30.8913C17.9615 30.756 18.2538 30.5577 18.5 30.3076C18.7462 30.0576 18.9415 29.7608 19.0748 29.4342C19.2081 29.1075 19.2767 28.7574 19.2767 28.4039C19.2767 28.0503 19.2081 27.7002 19.0748 27.3735C18.9415 27.0469 18.7462 26.7501 18.5 26.5001M16 23.9617L19.125 27.1347C19.6223 27.6396 20.2967 27.9232 21 27.9232C21.7033 27.9232 22.3777 27.6396 22.875 27.1347C23.3723 26.6298 23.6517 25.945 23.6517 25.2309C23.6517 24.5168 23.3723 23.832 22.875 23.3271L18.025 18.4027C17.3219 17.6896 16.3688 17.2891 15.375 17.2891C14.3812 17.2891 13.4281 17.6896 12.725 18.4027L11.625 19.5195C11.1277 20.0245 10.4533 20.3081 9.75 20.3081C9.04674 20.3081 8.37228 20.0245 7.875 19.5195C7.37772 19.0146 7.09835 18.3298 7.09835 17.6158C7.09835 16.9017 7.37772 16.2169 7.875 15.712L11.3875 12.1456C12.5278 10.9908 14.0149 10.2552 15.6133 10.0552C17.2117 9.85518 18.8302 10.2022 20.2125 11.0414L20.8 11.3967C21.3322 11.7229 21.9651 11.836 22.575 11.714L24.75 11.2698M24.75 10.0006L26 23.9617H23.5M2.25 10.0006L1 23.9617L9.125 32.2114C9.62228 32.7163 10.2967 33 11 33C11.7033 33 12.3777 32.7163 12.875 32.2114C13.3723 31.7065 13.6517 31.0217 13.6517 30.3076C13.6517 29.5936 13.3723 28.9088 12.875 28.4039M2.25 11.2698H12.25" stroke="#1C2706" stroke-width="2" stroke-linecap="round" stroke-linejoin="round"/>
</svg>
